<svg xmlns="http://www.w3.org/2000/svg" xmlns:xlink="http://www.w3.org/1999/xlink" width="1220" height="704" xml:space="preserve"><defs><linearGradient x1="94.943" y1="94.5487" x2="268.61" y2="94.5487" gradientUnits="userSpaceOnUse" spreadMethod="reflect" id="fill0"><stop offset="0" stop-color="#7030A0"></stop><stop offset="0.00900901" stop-color="#6F30A1"></stop><stop offset="0.018018" stop-color="#6F31A3"></stop><stop offset="0.027027" stop-color="#6F32A4"></stop><stop offset="0.036036" stop-color="#6F33A6"></stop><stop offset="0.045045" stop-color="#6F34A7"></stop><stop offset="0.0540541" stop-color="#6F35A9"></stop><stop offset="0.0630631" stop-color="#6F36AA"></stop><stop offset="0.0720721" stop-color="#6F37AC"></stop><stop offset="0.0810811" stop-color="#6E37AD"></stop><stop offset="0.0900901" stop-color="#6E38AF"></stop><stop offset="0.0990991" stop-color="#6E39B0"></stop><stop offset="0.108108" stop-color="#6E3AB2"></stop><stop offset="0.117117" stop-color="#6D3BB3"></stop><stop offset="0.126126" stop-color="#6D3CB5"></stop><stop offset="0.135135" stop-color="#6D3CB6"></stop><stop offset="0.144144" stop-color="#6D3DB8"></stop><stop offset="0.153153" stop-color="#6C3EB9"></stop><stop offset="0.162162" stop-color="#6C3FBA"></stop><stop offset="0.171171" stop-color="#6B40BC"></stop><stop offset="0.18018" stop-color="#6B40BD"></stop><stop offset="0.189189" stop-color="#6B41BE"></stop><stop offset="0.198198" stop-color="#6A42C0"></stop><stop offset="0.207207" stop-color="#6A43C1"></stop><stop offset="0.216216" stop-color="#6943C2"></stop><stop offset="0.225225" stop-color="#6944C4"></stop><stop offset="0.234234" stop-color="#6845C5"></stop><stop offset="0.243243" stop-color="#6845C6"></stop><stop offset="0.252252" stop-color="#6746C7"></stop><stop offset="0.261261" stop-color="#6647C9"></stop><stop offset="0.27027" stop-color="#6648CA"></stop><stop offset="0.279279" stop-color="#6548CB"></stop><stop offset="0.288288" stop-color="#6549CC"></stop><stop offset="0.297297" stop-color="#644ACD"></stop><stop offset="0.306306" stop-color="#634ACF"></stop><stop offset="0.315315" stop-color="#634BD0"></stop><stop offset="0.324324" stop-color="#624CD1"></stop><stop offset="0.333333" stop-color="#614CD2"></stop><stop offset="0.342342" stop-color="#604DD3"></stop><stop offset="0.351351" stop-color="#604ED4"></stop><stop offset="0.36036" stop-color="#5F4ED5"></stop><stop offset="0.369369" stop-color="#5E4FD6"></stop><stop offset="0.378378" stop-color="#5D4FD8"></stop><stop offset="0.387387" stop-color="#5D50D9"></stop><stop offset="0.396396" stop-color="#5C51DA"></stop><stop offset="0.405405" stop-color="#5B51DB"></stop><stop offset="0.414414" stop-color="#5A52DC"></stop><stop offset="0.423423" stop-color="#5952DD"></stop><stop offset="0.432432" stop-color="#5853DE"></stop><stop offset="0.441441" stop-color="#5753DF"></stop><stop offset="0.45045" stop-color="#5654E0"></stop><stop offset="0.459459" stop-color="#5554E1"></stop><stop offset="0.468468" stop-color="#5455E1"></stop><stop offset="0.477477" stop-color="#5356E2"></stop><stop offset="0.486486" stop-color="#5256E3"></stop><stop offset="0.495495" stop-color="#5157E4"></stop><stop offset="0.504505" stop-color="#5057E5"></stop><stop offset="0.513514" stop-color="#4F58E6"></stop><stop offset="0.522523" stop-color="#4E58E7"></stop><stop offset="0.531532" stop-color="#4D58E8"></stop><stop offset="0.540541" stop-color="#4C59E8"></stop><stop offset="0.54955" stop-color="#4B59E9"></stop><stop offset="0.558559" stop-color="#4A5AEA"></stop><stop offset="0.567568" stop-color="#495AEB"></stop><stop offset="0.576577" stop-color="#485BEC"></stop><stop offset="0.585586" stop-color="#465BEC"></stop><stop offset="0.594595" stop-color="#455CED"></stop><stop offset="0.603604" stop-color="#445CEE"></stop><stop offset="0.612613" stop-color="#435CEE"></stop><stop offset="0.621622" stop-color="#425DEF"></stop><stop offset="0.630631" stop-color="#405DF0"></stop><stop offset="0.63964" stop-color="#3F5EF0"></stop><stop offset="0.648649" stop-color="#3E5EF1"></stop><stop offset="0.657658" stop-color="#3C5EF2"></stop><stop offset="0.666667" stop-color="#3B5FF2"></stop><stop offset="0.675676" stop-color="#3A5FF3"></stop><stop offset="0.684685" stop-color="#385FF4"></stop><stop offset="0.693694" stop-color="#3760F4"></stop><stop offset="0.702703" stop-color="#3660F5"></stop><stop offset="0.711712" stop-color="#3460F5"></stop><stop offset="0.720721" stop-color="#3361F6"></stop><stop offset="0.72973" stop-color="#3161F6"></stop><stop offset="0.738739" stop-color="#3061F7"></stop><stop offset="0.747748" stop-color="#2F61F7"></stop><stop offset="0.756757" stop-color="#2D62F8"></stop><stop offset="0.765766" stop-color="#2C62F8"></stop><stop offset="0.774775" stop-color="#2A62F9"></stop><stop offset="0.783784" stop-color="#2962F9"></stop><stop offset="0.792793" stop-color="#2763FA"></stop><stop offset="0.801802" stop-color="#2563FA"></stop><stop offset="0.810811" stop-color="#2463FA"></stop><stop offset="0.81982" stop-color="#2263FB"></stop><stop offset="0.828829" stop-color="#2164FB"></stop><stop offset="0.837838" stop-color="#1F64FB"></stop><stop offset="0.846847" stop-color="#1D64FC"></stop><stop offset="0.855856" stop-color="#1C64FC"></stop><stop offset="0.864865" stop-color="#1A64FC"></stop><stop offset="0.873874" stop-color="#1964FD"></stop><stop offset="0.882883" stop-color="#1765FD"></stop><stop offset="0.891892" stop-color="#1565FD"></stop><stop offset="0.900901" stop-color="#1365FD"></stop><stop offset="0.90991" stop-color="#1265FD"></stop><stop offset="0.918919" stop-color="#1065FE"></stop><stop offset="0.927928" stop-color="#0E65FE"></stop><stop offset="0.936937" stop-color="#0C65FE"></stop><stop offset="0.945946" stop-color="#0B65FE"></stop><stop offset="0.954955" stop-color="#0965FE"></stop><stop offset="0.963964" stop-color="#0765FE"></stop><stop offset="0.972973" stop-color="#0565FE"></stop><stop offset="0.981982" stop-color="#0365FE"></stop><stop offset="0.990991" stop-color="#0165FE"></stop><stop offset="1" stop-color="#0066FF"></stop></linearGradient><linearGradient x1="359" y1="546.5" x2="985" y2="546.5" gradientUnits="userSpaceOnUse" spreadMethod="reflect" id="fill1"><stop offset="0" stop-color="#7030A0" stop-opacity="0.101961"></stop><stop offset="0.00900901" stop-color="#6F30A1" stop-opacity="0.105564"></stop><stop offset="0.018018" stop-color="#6F31A3" stop-opacity="0.109168"></stop><stop offset="0.027027" stop-color="#6F32A4" stop-opacity="0.112772"></stop><stop offset="0.036036" stop-color="#6F33A6" stop-opacity="0.116375"></stop><stop offset="0.045045" stop-color="#6F34A7" stop-opacity="0.119979"></stop><stop offset="0.0540541" stop-color="#6F35A9" stop-opacity="0.123582"></stop><stop offset="0.0630631" stop-color="#6F36AA" stop-opacity="0.127186"></stop><stop offset="0.0720721" stop-color="#6F37AC" stop-opacity="0.13079"></stop><stop offset="0.0810811" stop-color="#6E37AD" stop-opacity="0.134393"></stop><stop offset="0.0900901" stop-color="#6E38AF" stop-opacity="0.137997"></stop><stop offset="0.0990991" stop-color="#6E39B0" stop-opacity="0.1416"></stop><stop offset="0.108108" stop-color="#6E3AB2" stop-opacity="0.145204"></stop><stop offset="0.117117" stop-color="#6D3BB3" stop-opacity="0.148808"></stop><stop offset="0.126126" stop-color="#6D3CB5" stop-opacity="0.152411"></stop><stop offset="0.135135" stop-color="#6D3CB6" stop-opacity="0.156015"></stop><stop offset="0.144144" stop-color="#6D3DB8" stop-opacity="0.159618"></stop><stop offset="0.153153" stop-color="#6C3EB9" stop-opacity="0.163222"></stop><stop offset="0.162162" stop-color="#6C3FBA" stop-opacity="0.166826"></stop><stop offset="0.171171" stop-color="#6B40BC" stop-opacity="0.170429"></stop><stop offset="0.18018" stop-color="#6B40BD" stop-opacity="0.174033"></stop><stop offset="0.189189" stop-color="#6B41BE" stop-opacity="0.177636"></stop><stop offset="0.198198" stop-color="#6A42C0" stop-opacity="0.18124"></stop><stop offset="0.207207" stop-color="#6A43C1" stop-opacity="0.184844"></stop><stop offset="0.216216" stop-color="#6943C2" stop-opacity="0.188447"></stop><stop offset="0.225225" stop-color="#6944C4" stop-opacity="0.192051"></stop><stop offset="0.234234" stop-color="#6845C5" stop-opacity="0.195654"></stop><stop offset="0.243243" stop-color="#6845C6" stop-opacity="0.199258"></stop><stop offset="0.252252" stop-color="#6746C7" stop-opacity="0.202862"></stop><stop offset="0.261261" stop-color="#6647C9" stop-opacity="0.206465"></stop><stop offset="0.27027" stop-color="#6648CA" stop-opacity="0.210069"></stop><stop offset="0.279279" stop-color="#6548CB" stop-opacity="0.213673"></stop><stop offset="0.288288" stop-color="#6549CC" stop-opacity="0.217276"></stop><stop offset="0.297297" stop-color="#644ACD" stop-opacity="0.22088"></stop><stop offset="0.306306" stop-color="#634ACF" stop-opacity="0.224483"></stop><stop offset="0.315315" stop-color="#634BD0" stop-opacity="0.228087"></stop><stop offset="0.324324" stop-color="#624CD1" stop-opacity="0.231691"></stop><stop offset="0.333333" stop-color="#614CD2" stop-opacity="0.235294"></stop><stop offset="0.342342" stop-color="#604DD3" stop-opacity="0.238898"></stop><stop offset="0.351351" stop-color="#604ED4" stop-opacity="0.242501"></stop><stop offset="0.36036" stop-color="#5F4ED5" stop-opacity="0.246105"></stop><stop offset="0.369369" stop-color="#5E4FD6" stop-opacity="0.249709"></stop><stop offset="0.378378" stop-color="#5D4FD8" stop-opacity="0.253312"></stop><stop offset="0.387387" stop-color="#5D50D9" stop-opacity="0.256916"></stop><stop offset="0.396396" stop-color="#5C51DA" stop-opacity="0.260519"></stop><stop offset="0.405405" stop-color="#5B51DB" stop-opacity="0.264123"></stop><stop offset="0.414414" stop-color="#5A52DC" stop-opacity="0.267727"></stop><stop offset="0.423423" stop-color="#5952DD" stop-opacity="0.27133"></stop><stop offset="0.432432" stop-color="#5853DE" stop-opacity="0.274934"></stop><stop offset="0.441441" stop-color="#5753DF" stop-opacity="0.278537"></stop><stop offset="0.45045" stop-color="#5654E0" stop-opacity="0.282141"></stop><stop offset="0.459459" stop-color="#5554E1" stop-opacity="0.285745"></stop><stop offset="0.468468" stop-color="#5455E1" stop-opacity="0.289348"></stop><stop offset="0.477477" stop-color="#5356E2" stop-opacity="0.292952"></stop><stop offset="0.486486" stop-color="#5256E3" stop-opacity="0.296555"></stop><stop offset="0.495495" stop-color="#5157E4" stop-opacity="0.300159"></stop><stop offset="0.504505" stop-color="#5057E5" stop-opacity="0.303763"></stop><stop offset="0.513514" stop-color="#4F58E6" stop-opacity="0.307366"></stop><stop offset="0.522523" stop-color="#4E58E7" stop-opacity="0.31097"></stop><stop offset="0.531532" stop-color="#4D58E8" stop-opacity="0.314573"></stop><stop offset="0.540541" stop-color="#4C59E8" stop-opacity="0.318177"></stop><stop offset="0.54955" stop-color="#4B59E9" stop-opacity="0.321781"></stop><stop offset="0.558559" stop-color="#4A5AEA" stop-opacity="0.325384"></stop><stop offset="0.567568" stop-color="#495AEB" stop-opacity="0.328988"></stop><stop offset="0.576577" stop-color="#485BEC" stop-opacity="0.332591"></stop><stop offset="0.585586" stop-color="#465BEC" stop-opacity="0.336195"></stop><stop offset="0.594595" stop-color="#455CED" stop-opacity="0.339799"></stop><stop offset="0.603604" stop-color="#445CEE" stop-opacity="0.343402"></stop><stop offset="0.612613" stop-color="#435CEE" stop-opacity="0.347006"></stop><stop offset="0.621622" stop-color="#425DEF" stop-opacity="0.350609"></stop><stop offset="0.630631" stop-color="#405DF0" stop-opacity="0.354213"></stop><stop offset="0.63964" stop-color="#3F5EF0" stop-opacity="0.357817"></stop><stop offset="0.648649" stop-color="#3E5EF1" stop-opacity="0.36142"></stop><stop offset="0.657658" stop-color="#3C5EF2" stop-opacity="0.365024"></stop><stop offset="0.666667" stop-color="#3B5FF2" stop-opacity="0.368627"></stop><stop offset="0.675676" stop-color="#3A5FF3" stop-opacity="0.372231"></stop><stop offset="0.684685" stop-color="#385FF4" stop-opacity="0.375835"></stop><stop offset="0.693694" stop-color="#3760F4" stop-opacity="0.379438"></stop><stop offset="0.702703" stop-color="#3660F5" stop-opacity="0.383042"></stop><stop offset="0.711712" stop-color="#3460F5" stop-opacity="0.386645"></stop><stop offset="0.720721" stop-color="#3361F6" stop-opacity="0.390249"></stop><stop offset="0.72973" stop-color="#3161F6" stop-opacity="0.393853"></stop><stop offset="0.738739" stop-color="#3061F7" stop-opacity="0.397456"></stop><stop offset="0.747748" stop-color="#2F61F7" stop-opacity="0.40106"></stop><stop offset="0.756757" stop-color="#2D62F8" stop-opacity="0.404664"></stop><stop offset="0.765766" stop-color="#2C62F8" stop-opacity="0.408267"></stop><stop offset="0.774775" stop-color="#2A62F9" stop-opacity="0.411871"></stop><stop offset="0.783784" stop-color="#2962F9" stop-opacity="0.415474"></stop><stop offset="0.792793" stop-color="#2763FA" stop-opacity="0.419078"></stop><stop offset="0.801802" stop-color="#2563FA" stop-opacity="0.422682"></stop><stop offset="0.810811" stop-color="#2463FA" stop-opacity="0.426285"></stop><stop offset="0.81982" stop-color="#2263FB" stop-opacity="0.429889"></stop><stop offset="0.828829" stop-color="#2164FB" stop-opacity="0.433492"></stop><stop offset="0.837838" stop-color="#1F64FB" stop-opacity="0.437096"></stop><stop offset="0.846847" stop-color="#1D64FC" stop-opacity="0.4407"></stop><stop offset="0.855856" stop-color="#1C64FC" stop-opacity="0.444303"></stop><stop offset="0.864865" stop-color="#1A64FC" stop-opacity="0.447907"></stop><stop offset="0.873874" stop-color="#1964FD" stop-opacity="0.45151"></stop><stop offset="0.882883" stop-color="#1765FD" stop-opacity="0.455114"></stop><stop offset="0.891892" stop-color="#1565FD" stop-opacity="0.458718"></stop><stop offset="0.900901" stop-color="#1365FD" stop-opacity="0.462321"></stop><stop offset="0.90991" stop-color="#1265FD" stop-opacity="0.465925"></stop><stop offset="0.918919" stop-color="#1065FE" stop-opacity="0.469528"></stop><stop offset="0.927928" stop-color="#0E65FE" stop-opacity="0.473132"></stop><stop offset="0.936937" stop-color="#0C65FE" stop-opacity="0.476736"></stop><stop offset="0.945946" stop-color="#0B65FE" stop-opacity="0.480339"></stop><stop offset="0.954955" stop-color="#0965FE" stop-opacity="0.483943"></stop><stop offset="0.963964" stop-color="#0765FE" stop-opacity="0.487546"></stop><stop offset="0.972973" stop-color="#0565FE" stop-opacity="0.49115"></stop><stop offset="0.981982" stop-color="#0365FE" stop-opacity="0.494754"></stop><stop offset="0.990991" stop-color="#0165FE" stop-opacity="0.498357"></stop><stop offset="1" stop-color="#0066FF" stop-opacity="0.501961"></stop></linearGradient><linearGradient x1="869.851" y1="95.6408" x2="1207.52" y2="95.6408" gradientUnits="userSpaceOnUse" spreadMethod="reflect" id="fill2"><stop offset="0" stop-color="#7030A0"></stop><stop offset="0.00900901" stop-color="#6F30A1"></stop><stop offset="0.018018" stop-color="#6F31A3"></stop><stop offset="0.027027" stop-color="#6F32A4"></stop><stop offset="0.036036" stop-color="#6F33A6"></stop><stop offset="0.045045" stop-color="#6F34A7"></stop><stop offset="0.0540541" stop-color="#6F35A9"></stop><stop offset="0.0630631" stop-color="#6F36AA"></stop><stop offset="0.0720721" stop-color="#6F37AC"></stop><stop offset="0.0810811" stop-color="#6E37AD"></stop><stop offset="0.0900901" stop-color="#6E38AF"></stop><stop offset="0.0990991" stop-color="#6E39B0"></stop><stop offset="0.108108" stop-color="#6E3AB2"></stop><stop offset="0.117117" stop-color="#6D3BB3"></stop><stop offset="0.126126" stop-color="#6D3CB5"></stop><stop offset="0.135135" stop-color="#6D3CB6"></stop><stop offset="0.144144" stop-color="#6D3DB8"></stop><stop offset="0.153153" stop-color="#6C3EB9"></stop><stop offset="0.162162" stop-color="#6C3FBA"></stop><stop offset="0.171171" stop-color="#6B40BC"></stop><stop offset="0.18018" stop-color="#6B40BD"></stop><stop offset="0.189189" stop-color="#6B41BE"></stop><stop offset="0.198198" stop-color="#6A42C0"></stop><stop offset="0.207207" stop-color="#6A43C1"></stop><stop offset="0.216216" stop-color="#6943C2"></stop><stop offset="0.225225" stop-color="#6944C4"></stop><stop offset="0.234234" stop-color="#6845C5"></stop><stop offset="0.243243" stop-color="#6845C6"></stop><stop offset="0.252252" stop-color="#6746C7"></stop><stop offset="0.261261" stop-color="#6647C9"></stop><stop offset="0.27027" stop-color="#6648CA"></stop><stop offset="0.279279" stop-color="#6548CB"></stop><stop offset="0.288288" stop-color="#6549CC"></stop><stop offset="0.297297" stop-color="#644ACD"></stop><stop offset="0.306306" stop-color="#634ACF"></stop><stop offset="0.315315" stop-color="#634BD0"></stop><stop offset="0.324324" stop-color="#624CD1"></stop><stop offset="0.333333" stop-color="#614CD2"></stop><stop offset="0.342342" stop-color="#604DD3"></stop><stop offset="0.351351" stop-color="#604ED4"></stop><stop offset="0.36036" stop-color="#5F4ED5"></stop><stop offset="0.369369" stop-color="#5E4FD6"></stop><stop offset="0.378378" stop-color="#5D4FD8"></stop><stop offset="0.387387" stop-color="#5D50D9"></stop><stop offset="0.396396" stop-color="#5C51DA"></stop><stop offset="0.405405" stop-color="#5B51DB"></stop><stop offset="0.414414" stop-color="#5A52DC"></stop><stop offset="0.423423" stop-color="#5952DD"></stop><stop offset="0.432432" stop-color="#5853DE"></stop><stop offset="0.441441" stop-color="#5753DF"></stop><stop offset="0.45045" stop-color="#5654E0"></stop><stop offset="0.459459" stop-color="#5554E1"></stop><stop offset="0.468468" stop-color="#5455E1"></stop><stop offset="0.477477" stop-color="#5356E2"></stop><stop offset="0.486486" stop-color="#5256E3"></stop><stop offset="0.495495" stop-color="#5157E4"></stop><stop offset="0.504505" stop-color="#5057E5"></stop><stop offset="0.513514" stop-color="#4F58E6"></stop><stop offset="0.522523" stop-color="#4E58E7"></stop><stop offset="0.531532" stop-color="#4D58E8"></stop><stop offset="0.540541" stop-color="#4C59E8"></stop><stop offset="0.54955" stop-color="#4B59E9"></stop><stop offset="0.558559" stop-color="#4A5AEA"></stop><stop offset="0.567568" stop-color="#495AEB"></stop><stop offset="0.576577" stop-color="#485BEC"></stop><stop offset="0.585586" stop-color="#465BEC"></stop><stop offset="0.594595" stop-color="#455CED"></stop><stop offset="0.603604" stop-color="#445CEE"></stop><stop offset="0.612613" stop-color="#435CEE"></stop><stop offset="0.621622" stop-color="#425DEF"></stop><stop offset="0.630631" stop-color="#405DF0"></stop><stop offset="0.63964" stop-color="#3F5EF0"></stop><stop offset="0.648649" stop-color="#3E5EF1"></stop><stop offset="0.657658" stop-color="#3C5EF2"></stop><stop offset="0.666667" stop-color="#3B5FF2"></stop><stop offset="0.675676" stop-color="#3A5FF3"></stop><stop offset="0.684685" stop-color="#385FF4"></stop><stop offset="0.693694" stop-color="#3760F4"></stop><stop offset="0.702703" stop-color="#3660F5"></stop><stop offset="0.711712" stop-color="#3460F5"></stop><stop offset="0.720721" stop-color="#3361F6"></stop><stop offset="0.72973" stop-color="#3161F6"></stop><stop offset="0.738739" stop-color="#3061F7"></stop><stop offset="0.747748" stop-color="#2F61F7"></stop><stop offset="0.756757" stop-color="#2D62F8"></stop><stop offset="0.765766" stop-color="#2C62F8"></stop><stop offset="0.774775" stop-color="#2A62F9"></stop><stop offset="0.783784" stop-color="#2962F9"></stop><stop offset="0.792793" stop-color="#2763FA"></stop><stop offset="0.801802" stop-color="#2563FA"></stop><stop offset="0.810811" stop-color="#2463FA"></stop><stop offset="0.81982" stop-color="#2263FB"></stop><stop offset="0.828829" stop-color="#2164FB"></stop><stop offset="0.837838" stop-color="#1F64FB"></stop><stop offset="0.846847" stop-color="#1D64FC"></stop><stop offset="0.855856" stop-color="#1C64FC"></stop><stop offset="0.864865" stop-color="#1A64FC"></stop><stop offset="0.873874" stop-color="#1964FD"></stop><stop offset="0.882883" stop-color="#1765FD"></stop><stop offset="0.891892" stop-color="#1565FD"></stop><stop offset="0.900901" stop-color="#1365FD"></stop><stop offset="0.90991" stop-color="#1265FD"></stop><stop offset="0.918919" stop-color="#1065FE"></stop><stop offset="0.927928" stop-color="#0E65FE"></stop><stop offset="0.936937" stop-color="#0C65FE"></stop><stop offset="0.945946" stop-color="#0B65FE"></stop><stop offset="0.954955" stop-color="#0965FE"></stop><stop offset="0.963964" stop-color="#0765FE"></stop><stop offset="0.972973" stop-color="#0565FE"></stop><stop offset="0.981982" stop-color="#0365FE"></stop><stop offset="0.990991" stop-color="#0165FE"></stop><stop offset="1" stop-color="#0066FF"></stop></linearGradient><linearGradient x1="869.851" y1="95.6408" x2="1207.52" y2="95.6408" gradientUnits="userSpaceOnUse" spreadMethod="reflect" id="fill3"><stop offset="0" stop-color="#7030A0"></stop><stop offset="0.00900901" stop-color="#6F30A1"></stop><stop offset="0.018018" stop-color="#6F31A3"></stop><stop offset="0.027027" stop-color="#6F32A4"></stop><stop offset="0.036036" stop-color="#6F33A6"></stop><stop offset="0.045045" stop-color="#6F34A7"></stop><stop offset="0.0540541" stop-color="#6F35A9"></stop><stop offset="0.0630631" stop-color="#6F36AA"></stop><stop offset="0.0720721" stop-color="#6F37AC"></stop><stop offset="0.0810811" stop-color="#6E37AD"></stop><stop offset="0.0900901" stop-color="#6E38AF"></stop><stop offset="0.0990991" stop-color="#6E39B0"></stop><stop offset="0.108108" stop-color="#6E3AB2"></stop><stop offset="0.117117" stop-color="#6D3BB3"></stop><stop offset="0.126126" stop-color="#6D3CB5"></stop><stop offset="0.135135" stop-color="#6D3CB6"></stop><stop offset="0.144144" stop-color="#6D3DB8"></stop><stop offset="0.153153" stop-color="#6C3EB9"></stop><stop offset="0.162162" stop-color="#6C3FBA"></stop><stop offset="0.171171" stop-color="#6B40BC"></stop><stop offset="0.18018" stop-color="#6B40BD"></stop><stop offset="0.189189" stop-color="#6B41BE"></stop><stop offset="0.198198" stop-color="#6A42C0"></stop><stop offset="0.207207" stop-color="#6A43C1"></stop><stop offset="0.216216" stop-color="#6943C2"></stop><stop offset="0.225225" stop-color="#6944C4"></stop><stop offset="0.234234" stop-color="#6845C5"></stop><stop offset="0.243243" stop-color="#6845C6"></stop><stop offset="0.252252" stop-color="#6746C7"></stop><stop offset="0.261261" stop-color="#6647C9"></stop><stop offset="0.27027" stop-color="#6648CA"></stop><stop offset="0.279279" stop-color="#6548CB"></stop><stop offset="0.288288" stop-color="#6549CC"></stop><stop offset="0.297297" stop-color="#644ACD"></stop><stop offset="0.306306" stop-color="#634ACF"></stop><stop offset="0.315315" stop-color="#634BD0"></stop><stop offset="0.324324" stop-color="#624CD1"></stop><stop offset="0.333333" stop-color="#614CD2"></stop><stop offset="0.342342" stop-color="#604DD3"></stop><stop offset="0.351351" stop-color="#604ED4"></stop><stop offset="0.36036" stop-color="#5F4ED5"></stop><stop offset="0.369369" stop-color="#5E4FD6"></stop><stop offset="0.378378" stop-color="#5D4FD8"></stop><stop offset="0.387387" stop-color="#5D50D9"></stop><stop offset="0.396396" stop-color="#5C51DA"></stop><stop offset="0.405405" stop-color="#5B51DB"></stop><stop offset="0.414414" stop-color="#5A52DC"></stop><stop offset="0.423423" stop-color="#5952DD"></stop><stop offset="0.432432" stop-color="#5853DE"></stop><stop offset="0.441441" stop-color="#5753DF"></stop><stop offset="0.45045" stop-color="#5654E0"></stop><stop offset="0.459459" stop-color="#5554E1"></stop><stop offset="0.468468" stop-color="#5455E1"></stop><stop offset="0.477477" stop-color="#5356E2"></stop><stop offset="0.486486" stop-color="#5256E3"></stop><stop offset="0.495495" stop-color="#5157E4"></stop><stop offset="0.504505" stop-color="#5057E5"></stop><stop offset="0.513514" stop-color="#4F58E6"></stop><stop offset="0.522523" stop-color="#4E58E7"></stop><stop offset="0.531532" stop-color="#4D58E8"></stop><stop offset="0.540541" stop-color="#4C59E8"></stop><stop offset="0.54955" stop-color="#4B59E9"></stop><stop offset="0.558559" stop-color="#4A5AEA"></stop><stop offset="0.567568" stop-color="#495AEB"></stop><stop offset="0.576577" stop-color="#485BEC"></stop><stop offset="0.585586" stop-color="#465BEC"></stop><stop offset="0.594595" stop-color="#455CED"></stop><stop offset="0.603604" stop-color="#445CEE"></stop><stop offset="0.612613" stop-color="#435CEE"></stop><stop offset="0.621622" stop-color="#425DEF"></stop><stop offset="0.630631" stop-color="#405DF0"></stop><stop offset="0.63964" stop-color="#3F5EF0"></stop><stop offset="0.648649" stop-color="#3E5EF1"></stop><stop offset="0.657658" stop-color="#3C5EF2"></stop><stop offset="0.666667" stop-color="#3B5FF2"></stop><stop offset="0.675676" stop-color="#3A5FF3"></stop><stop offset="0.684685" stop-color="#385FF4"></stop><stop offset="0.693694" stop-color="#3760F4"></stop><stop offset="0.702703" stop-color="#3660F5"></stop><stop offset="0.711712" stop-color="#3460F5"></stop><stop offset="0.720721" stop-color="#3361F6"></stop><stop offset="0.72973" stop-color="#3161F6"></stop><stop offset="0.738739" stop-color="#3061F7"></stop><stop offset="0.747748" stop-color="#2F61F7"></stop><stop offset="0.756757" stop-color="#2D62F8"></stop><stop offset="0.765766" stop-color="#2C62F8"></stop><stop offset="0.774775" stop-color="#2A62F9"></stop><stop offset="0.783784" stop-color="#2962F9"></stop><stop offset="0.792793" stop-color="#2763FA"></stop><stop offset="0.801802" stop-color="#2563FA"></stop><stop offset="0.810811" stop-color="#2463FA"></stop><stop offset="0.81982" stop-color="#2263FB"></stop><stop offset="0.828829" stop-color="#2164FB"></stop><stop offset="0.837838" stop-color="#1F64FB"></stop><stop offset="0.846847" stop-color="#1D64FC"></stop><stop offset="0.855856" stop-color="#1C64FC"></stop><stop offset="0.864865" stop-color="#1A64FC"></stop><stop offset="0.873874" stop-color="#1964FD"></stop><stop offset="0.882883" stop-color="#1765FD"></stop><stop offset="0.891892" stop-color="#1565FD"></stop><stop offset="0.900901" stop-color="#1365FD"></stop><stop offset="0.90991" stop-color="#1265FD"></stop><stop offset="0.918919" stop-color="#1065FE"></stop><stop offset="0.927928" stop-color="#0E65FE"></stop><stop offset="0.936937" stop-color="#0C65FE"></stop><stop offset="0.945946" stop-color="#0B65FE"></stop><stop offset="0.954955" stop-color="#0965FE"></stop><stop offset="0.963964" stop-color="#0765FE"></stop><stop offset="0.972973" stop-color="#0565FE"></stop><stop offset="0.981982" stop-color="#0365FE"></stop><stop offset="0.990991" stop-color="#0165FE"></stop><stop offset="1" stop-color="#0066FF"></stop></linearGradient></defs><g transform="translate(-62 -40)"><path d="M80 57.7132C80 47.9305 87.9305 40 97.7132 40L1264.29 40C1274.07 40 1282 47.9305 1282 57.7132L1282 726.287C1282 736.07 1274.07 744 1264.29 744L97.7132 744C87.9305 744 80 736.07 80 726.287Z" fill="#F2F2F2" fill-rule="evenodd"></path><path d="M159.661 97.7218C158.8 98.0734 157.508 98.3722 155.785 98.6183 154.81 98.7589 154.12 98.9171 153.715 99.0929 153.311 99.2687 152.999 99.5258 152.779 99.8641 152.56 100.202 152.45 100.578 152.45 100.991 152.45 101.624 152.689 102.151 153.168 102.573 153.647 102.995 154.348 103.206 155.271 103.206 156.185 103.206 156.998 103.006 157.71 102.606 158.422 102.206 158.945 101.659 159.279 100.965 159.534 100.429 159.661 99.6378 159.661 98.5919ZM246.405 92.3956C245.218 92.3956 244.234 92.8395 243.452 93.7272 242.67 94.6149 242.278 95.9552 242.278 97.7482 242.278 99.5411 242.67 100.884 243.452 101.776 244.234 102.668 245.218 103.114 246.405 103.114 247.583 103.114 248.563 102.666 249.345 101.769 250.127 100.873 250.518 99.506 250.518 97.6691 250.518 95.9376 250.125 94.6259 249.338 93.7338 248.552 92.8417 247.574 92.3956 246.405 92.3956ZM197.405 92.3956C196.218 92.3956 195.234 92.8395 194.452 93.7272 193.67 94.6149 193.278 95.9552 193.278 97.7482 193.278 99.5411 193.67 100.884 194.452 101.776 195.234 102.668 196.218 103.114 197.405 103.114 198.583 103.114 199.563 102.666 200.345 101.769 201.127 100.873 201.518 99.506 201.518 97.6691 201.518 95.9376 201.125 94.6259 200.338 93.7338 199.552 92.8417 198.574 92.3956 197.405 92.3956ZM127.049 92.3956C125.994 92.3956 125.098 92.8241 124.359 93.681 123.621 94.538 123.252 95.8102 123.252 97.4977 123.252 99.3346 123.617 100.675 124.346 101.519 125.076 102.362 125.99 102.784 127.089 102.784 128.178 102.784 129.092 102.365 129.831 101.525 130.569 100.686 130.938 99.3698 130.938 97.5768 130.938 95.8629 130.558 94.5709 129.798 93.7008 129.038 92.8307 128.121 92.3956 127.049 92.3956ZM234.736 90.7477 237.109 90.7477 237.109 104.749 234.736 104.749ZM212.67 90.7477 215.043 90.7477 215.043 98.5128C215.043 99.7521 215.091 100.587 215.188 101.018 215.338 101.642 215.654 102.132 216.137 102.488 216.621 102.844 217.218 103.022 217.93 103.022 218.642 103.022 219.31 102.839 219.934 102.475 220.558 102.11 221 101.613 221.259 100.985 221.518 100.356 221.648 99.4445 221.648 98.2491L221.648 90.7477 224.021 90.7477 224.021 104.749 221.899 104.749 221.899 102.692C220.809 104.274 219.328 105.065 217.456 105.065 216.63 105.065 215.858 104.907 215.142 104.59 214.426 104.274 213.894 103.876 213.547 103.397 213.2 102.918 212.956 102.332 212.815 101.637 212.718 101.172 212.67 100.433 212.67 99.4225ZM136.736 90.7477 139.109 90.7477 139.109 104.749 136.736 104.749ZM115.736 90.7477 118.109 90.7477 118.109 104.749 115.736 104.749ZM262.315 90.4313C263.158 90.4313 263.934 90.5829 264.641 90.8861 265.349 91.1893 265.879 91.587 266.23 92.0792 266.582 92.5714 266.828 93.1559 266.968 93.8326 267.056 94.2721 267.1 95.0411 267.1 96.1398L267.1 104.749 264.727 104.749 264.727 96.2321C264.727 95.2653 264.635 94.5424 264.45 94.0634 264.266 93.5844 263.938 93.202 263.468 92.9164 262.998 92.6307 262.446 92.4879 261.814 92.4879 260.803 92.4879 259.931 92.8087 259.197 93.4503 258.463 94.0919 258.096 95.3092 258.096 97.1022L258.096 104.749 255.723 104.749 255.723 90.7477 257.859 90.7477 257.859 92.7384C258.887 91.2003 260.372 90.4313 262.315 90.4313ZM246.405 90.4313C248.33 90.4313 249.903 91.0619 251.125 92.3231 252.346 93.5844 252.957 95.3268 252.957 97.5504 252.957 99.3522 252.687 100.769 252.146 101.802 251.606 102.835 250.819 103.637 249.786 104.208 248.754 104.779 247.627 105.065 246.405 105.065 244.445 105.065 242.861 104.437 241.652 103.18 240.444 101.923 239.839 100.112 239.839 97.7482 239.839 95.1554 240.56 93.235 242.002 91.9869 243.206 90.9498 244.673 90.4313 246.405 90.4313ZM197.405 90.4313C199.33 90.4313 200.903 91.0619 202.125 92.3231 203.346 93.5844 203.957 95.3268 203.957 97.5504 203.957 99.3522 203.687 100.769 203.146 101.802 202.606 102.835 201.819 103.637 200.786 104.208 199.754 104.779 198.627 105.065 197.405 105.065 195.445 105.065 193.861 104.437 192.652 103.18 191.444 101.923 190.839 100.112 190.839 97.7482 190.839 95.1554 191.56 93.235 193.002 91.9869 194.206 90.9498 195.673 90.4313 197.405 90.4313ZM183.324 90.4313C184.422 90.4313 185.387 90.5895 186.218 90.9059 187.048 91.2223 187.661 91.6508 188.057 92.1913 188.452 92.7318 188.725 93.4547 188.874 94.36L186.554 94.6764C186.448 93.9557 186.143 93.3932 185.638 92.9889 185.132 92.5846 184.418 92.3824 183.495 92.3824 182.405 92.3824 181.628 92.5626 181.162 92.923 180.696 93.2833 180.463 93.7052 180.463 94.1886 180.463 94.4962 180.56 94.7731 180.753 95.0192 180.946 95.274 181.25 95.485 181.663 95.652 181.9 95.7399 182.599 95.942 183.759 96.2584 185.438 96.7067 186.609 97.0736 187.272 97.3593 187.936 97.6449 188.457 98.0602 188.835 98.6051 189.213 99.15 189.401 99.8268 189.401 100.635 189.401 101.426 189.171 102.171 188.709 102.87 188.248 103.569 187.582 104.109 186.712 104.492 185.842 104.874 184.858 105.065 183.759 105.065 181.94 105.065 180.553 104.687 179.599 103.931 178.646 103.175 178.037 102.055 177.774 100.57L180.12 100.2C180.252 101.141 180.619 101.862 181.221 102.362 181.823 102.863 182.665 103.114 183.746 103.114 184.836 103.114 185.644 102.892 186.172 102.448 186.699 102.004 186.963 101.483 186.963 100.886 186.963 100.35 186.73 99.9279 186.264 99.6202 185.939 99.4093 185.13 99.1412 183.838 98.816 182.098 98.3766 180.891 97.9965 180.219 97.6757 179.547 97.3549 179.037 96.911 178.69 96.3441 178.343 95.7772 178.169 95.151 178.169 94.4655 178.169 93.8414 178.312 93.2635 178.598 92.7318 178.883 92.2001 179.272 91.7584 179.764 91.4069 180.133 91.1344 180.637 90.9037 181.274 90.7147 181.911 90.5258 182.594 90.4313 183.324 90.4313ZM156.642 90.4313C157.838 90.4313 158.809 90.5719 159.556 90.8531 160.303 91.1344 160.852 91.4882 161.204 91.9144 161.555 92.3407 161.801 92.879 161.942 93.5294 162.021 93.9337 162.061 94.6632 162.061 95.7179L162.061 98.882C162.061 101.088 162.111 102.483 162.212 103.068 162.313 103.652 162.513 104.213 162.812 104.749L160.334 104.749C160.088 104.257 159.929 103.681 159.859 103.022 158.98 103.769 158.134 104.296 157.321 104.604 156.508 104.911 155.636 105.065 154.704 105.065 153.166 105.065 151.984 104.689 151.158 103.938 150.332 103.186 149.919 102.226 149.919 101.057 149.919 100.372 150.075 99.7455 150.387 99.1786 150.699 98.6117 151.107 98.1569 151.613 97.8141 152.118 97.4713 152.687 97.212 153.32 97.0363 153.786 96.9132 154.489 96.7946 155.429 96.6803 157.345 96.4518 158.756 96.1793 159.661 95.8629 159.67 95.5377 159.674 95.3312 159.674 95.2433 159.674 94.2765 159.45 93.5953 159.002 93.1998 158.396 92.6637 157.495 92.3956 156.299 92.3956 155.183 92.3956 154.359 92.5912 153.828 92.9823 153.296 93.3734 152.902 94.0656 152.648 95.0587L150.327 94.7423C150.538 93.7492 150.885 92.9472 151.369 92.3363 151.852 91.7255 152.551 91.2553 153.465 90.9257 154.379 90.5961 155.438 90.4313 156.642 90.4313ZM126.878 90.4313C128.53 90.4313 129.892 91.0992 130.965 92.4352L130.965 90.7477 133.153 90.7477 133.153 102.85C133.153 105.03 132.931 106.575 132.487 107.484 132.043 108.394 131.34 109.112 130.378 109.64 129.415 110.167 128.231 110.431 126.825 110.431 125.155 110.431 123.806 110.055 122.777 109.304 121.749 108.552 121.253 107.421 121.288 105.909L123.595 106.252C123.691 106.964 123.96 107.482 124.399 107.807 124.988 108.247 125.792 108.466 126.812 108.466 127.91 108.466 128.758 108.247 129.356 107.807 129.954 107.368 130.358 106.753 130.569 105.962 130.692 105.478 130.749 104.463 130.74 102.916 129.703 104.138 128.411 104.749 126.864 104.749 124.94 104.749 123.45 104.054 122.395 102.666 121.34 101.277 120.813 99.6115 120.813 97.6691 120.813 96.3331 121.055 95.1005 121.538 93.9711 122.022 92.8417 122.723 91.9694 123.641 91.3541 124.559 90.7389 125.638 90.4313 126.878 90.4313ZM99.5836 87.7023 99.5836 102.468 103.71 102.468C104.984 102.468 105.984 102.349 106.709 102.112 107.434 101.875 108.012 101.541 108.443 101.11 109.049 100.504 109.522 99.6884 109.86 98.6644 110.199 97.6405 110.368 96.399 110.368 94.9401 110.368 92.9186 110.036 91.3651 109.372 90.2797 108.709 89.1942 107.902 88.4669 106.953 88.0978 106.268 87.8341 105.165 87.7023 103.644 87.7023ZM230.518 85.8566 230.518 90.7477 232.904 90.7477 232.904 92.5934 230.518 92.5934 230.518 100.78C230.518 101.457 230.559 101.892 230.643 102.086 230.726 102.279 230.863 102.433 231.052 102.547 231.241 102.661 231.511 102.718 231.862 102.718 232.126 102.718 232.473 102.688 232.904 102.626L233.247 104.722C232.579 104.863 231.981 104.933 231.454 104.933 230.592 104.933 229.924 104.797 229.45 104.524 228.975 104.252 228.641 103.894 228.448 103.45 228.255 103.006 228.158 102.072 228.158 100.649L228.158 92.5934 226.418 92.5934 226.418 90.7477 228.158 90.7477 228.158 87.2804ZM145.518 85.8566 145.518 90.7477 147.904 90.7477 147.904 92.5934 145.518 92.5934 145.518 100.78C145.518 101.457 145.559 101.892 145.643 102.086 145.726 102.279 145.863 102.433 146.052 102.547 146.241 102.661 146.511 102.718 146.862 102.718 147.126 102.718 147.473 102.688 147.904 102.626L148.247 104.722C147.579 104.863 146.981 104.933 146.454 104.933 145.592 104.933 144.924 104.797 144.45 104.524 143.975 104.252 143.641 103.894 143.448 103.45 143.255 103.006 143.158 102.072 143.158 100.649L143.158 92.5934 141.418 92.5934 141.418 90.7477 143.158 90.7477 143.158 87.2804ZM234.736 85.4215 237.109 85.4215 237.109 88.1505 234.736 88.1505ZM206.67 85.4215 209.043 85.4215 209.043 104.749 206.67 104.749ZM164.67 85.4215 167.043 85.4215 167.043 104.749 164.67 104.749ZM136.736 85.4215 139.109 85.4215 139.109 88.1505 136.736 88.1505ZM115.736 85.4215 118.109 85.4215 118.109 88.1505 115.736 88.1505ZM97.026 85.4215 103.684 85.4215C105.187 85.4215 106.334 85.5138 107.125 85.6984 108.232 85.9532 109.177 86.4147 109.959 87.0826 110.979 87.944 111.741 89.0448 112.246 90.3851 112.752 91.7255 113.005 93.257 113.005 94.9796 113.005 96.4474 112.833 97.7482 112.49 98.882 112.148 100.016 111.708 100.954 111.172 101.697 110.636 102.439 110.049 103.024 109.412 103.45 108.775 103.876 108.006 104.199 107.105 104.419 106.204 104.639 105.169 104.749 104 104.749L97.026 104.749Z" fill="url(#fill0)" fill-rule="evenodd"></path><text font-family="Arial,Arial_MSFontService,sans-serif" font-weight="400" font-size="53" transform="translate(94.943 163)">Instalanes</text><text font-family="Arial,Arial_MSFontService,sans-serif" font-weight="400" font-size="27" transform="translate(94.943 201)">TMS </text><text font-family="Arial,Arial_MSFontService,sans-serif" font-weight="400" font-size="27" transform="translate(158.61 201)">and visibility platform</text><path d="M369 393.856C369 386.203 375.203 380 382.856 380L961.144 380C968.797 380 975 386.203 975 393.856L975 701.144C975 708.797 968.797 715 961.144 715L382.856 715C375.203 715 369 708.797 369 701.144Z" fill="#D5DBE5" fill-rule="evenodd"></path><text font-family="Arial,Arial_MSFontService,sans-serif" font-weight="400" font-size="16" transform="translate(383.002 405)">Capability enablers</text><path d="M142 396.732C142 387.491 149.491 380 158.732 380L332.268 380C341.509 380 349 387.491 349 396.732L349 698.268C349 707.509 341.509 715 332.268 715L158.732 715C149.491 715 142 707.509 142 698.268Z" fill="#D5DBE5" fill-rule="evenodd"></path><text font-family="Arial,Arial_MSFontService,sans-serif" font-weight="400" font-size="16" transform="translate(156.634 406)">TMS implementation</text><path d="M161 436.5C161 429.044 167.044 423 174.5 423L228.5 423C235.956 423 242 429.044 242 436.5L242 490.5C242 497.956 235.956 504 228.5 504L174.5 504C167.044 504 161 497.956 161 490.5Z" fill="#F2F2F2" fill-rule="evenodd"></path><text font-family="Arial,Arial_MSFontService,sans-serif" font-weight="400" font-size="13" transform="translate(177.24 460)">Account </text><text font-family="Arial,Arial_MSFontService,sans-serif" font-weight="400" font-size="13" transform="translate(184.907 476)">users</text><path d="M250 436.5C250 429.044 256.044 423 263.5 423L317.5 423C324.956 423 331 429.044 331 436.5L331 490.5C331 497.956 324.956 504 317.5 504L263.5 504C256.044 504 250 497.956 250 490.5Z" fill="#F2F2F2" fill-rule="evenodd"></path><text font-family="Arial,Arial_MSFontService,sans-serif" font-weight="400" font-size="13" transform="translate(276.447 468)">APIs</text><path d="M161 534.5C161 527.044 167.044 521 174.5 521L228.5 521C235.956 521 242 527.044 242 534.5L242 588.5C242 595.956 235.956 602 228.5 602L174.5 602C167.044 602 161 595.956 161 588.5Z" fill="#F2F2F2" fill-rule="evenodd"></path><text font-family="Arial,Arial_MSFontService,sans-serif" font-weight="400" font-size="13" transform="translate(183.824 558)">Rates </text><text font-family="Arial,Arial_MSFontService,sans-serif" font-weight="400" font-size="13" transform="translate(180.824 574)">master</text><path d="M250 534.5C250 527.044 256.044 521 263.5 521L317.5 521C324.956 521 331 527.044 331 534.5L331 588.5C331 595.956 324.956 602 317.5 602L263.5 602C256.044 602 250 595.956 250 588.5Z" fill="#F2F2F2" fill-rule="evenodd"></path><text font-family="Arial,Arial_MSFontService,sans-serif" font-weight="400" font-size="13" transform="translate(272.447 558)">Lanes </text><text font-family="Arial,Arial_MSFontService,sans-serif" font-weight="400" font-size="13" transform="translate(270.114 574)">master</text><path d="M161 632.5C161 625.044 167.044 619 174.5 619L228.5 619C235.956 619 242 625.044 242 632.5L242 687.5C242 694.956 235.956 701 228.5 701L174.5 701C167.044 701 161 694.956 161 687.5Z" fill="#F2F2F2" fill-rule="evenodd"></path><text font-family="Arial,Arial_MSFontService,sans-serif" font-weight="400" font-size="13" transform="translate(179.407 657)">Vehicle </text><text font-family="Arial,Arial_MSFontService,sans-serif" font-weight="400" font-size="13" transform="translate(180.827 673)">master</text><path d="M250 632.5C250 625.044 256.044 619 263.5 619L317.5 619C324.956 619 331 625.044 331 632.5L331 687.5C331 694.956 324.956 701 317.5 701L263.5 701C256.044 701 250 694.956 250 687.5Z" fill="#F2F2F2" fill-rule="evenodd"></path><text font-family="Arial,Arial_MSFontService,sans-serif" font-weight="400" font-size="13" transform="translate(272.614 657)">Driver </text><text font-family="Arial,Arial_MSFontService,sans-serif" font-weight="400" font-size="13" transform="translate(270.114 673)">master</text><path d="M183.334 326.5C176.798 326.5 171.5 321.202 171.5 314.667L171.5 267.334C171.5 260.798 176.798 255.5 183.334 255.5M280.667 255.5C287.202 255.5 292.5 260.798 292.5 267.334L292.5 314.667C292.5 321.202 287.202 326.5 280.667 326.5" stroke="#000000" stroke-miterlimit="8" fill="none" fill-rule="evenodd"></path><text font-family="Arial,Arial_MSFontService,sans-serif" font-weight="700" font-size="16" transform="translate(212.323 278)">Load </text><text font-family="Arial,Arial_MSFontService,sans-serif" font-weight="700" font-size="16" transform="translate(198.576 297)">dispatch </text><text font-family="Arial,Arial_MSFontService,sans-serif" font-weight="700" font-size="16" transform="translate(202.576 316)">planner</text><path d="M333.334 326.5C326.798 326.5 321.5 321.202 321.5 314.667L321.5 267.334C321.5 260.798 326.798 255.5 333.334 255.5M430.667 255.5C437.202 255.5 442.5 260.798 442.5 267.334L442.5 314.667C442.5 321.202 437.202 326.5 430.667 326.5" stroke="#000000" stroke-miterlimit="8" fill="none" fill-rule="evenodd"></path><text font-family="Arial,Arial_MSFontService,sans-serif" font-weight="700" font-size="16" transform="translate(344.039 287)">Transport </text><text font-family="Arial,Arial_MSFontService,sans-serif" font-weight="700" font-size="16" transform="translate(360.959 306)">order</text><path d="M483.334 326.5C476.798 326.5 471.5 321.202 471.5 314.666L471.5 267.334C471.5 260.798 476.798 255.5 483.334 255.5M579.666 255.5C586.202 255.5 591.5 260.798 591.5 267.334L591.5 314.666C591.5 321.202 586.202 326.5 579.666 326.5" stroke="#000000" stroke-miterlimit="8" fill="none" fill-rule="evenodd"></path><text font-family="Arial,Arial_MSFontService,sans-serif" font-weight="700" font-size="16" transform="translate(497.505 278)">Rate and </text><text font-family="Arial,Arial_MSFontService,sans-serif" font-weight="700" font-size="16" transform="translate(505.172 297)">Carrier </text><text font-family="Arial,Arial_MSFontService,sans-serif" font-weight="700" font-size="16" transform="translate(496.585 316)">selection</text><path d="M783.334 326.5C776.798 326.5 771.5 321.202 771.5 314.666L771.5 267.334C771.5 260.798 776.798 255.5 783.334 255.5M879.666 255.5C886.202 255.5 891.5 260.798 891.5 267.334L891.5 314.666C891.5 321.202 886.202 326.5 879.666 326.5" stroke="#000000" stroke-miterlimit="8" fill="none" fill-rule="evenodd"></path><text font-family="Arial,Arial_MSFontService,sans-serif" font-weight="700" font-size="16" transform="translate(792.76 278)">Execution </text><text font-family="Arial,Arial_MSFontService,sans-serif" font-weight="700" font-size="16" transform="translate(816.76 297)">and </text><text font-family="Arial,Arial_MSFontService,sans-serif" font-weight="700" font-size="16" transform="translate(799.927 316)">tracking</text><path d="M933.334 326.5C926.798 326.5 921.5 321.202 921.5 314.666L921.5 267.334C921.5 260.798 926.798 255.5 933.334 255.5M1029.67 255.5C1036.2 255.5 1041.5 260.798 1041.5 267.334L1041.5 314.666C1041.5 321.202 1036.2 326.5 1029.67 326.5" stroke="#000000" stroke-miterlimit="8" fill="none" fill-rule="evenodd"></path><text font-family="Arial,Arial_MSFontService,sans-serif" font-weight="700" font-size="16" transform="translate(943.973 287)">ePoD and </text><text font-family="Arial,Arial_MSFontService,sans-serif" font-weight="700" font-size="16" transform="translate(956.306 306)">Billing</text><path d="M1083.33 326.5C1076.8 326.5 1071.5 321.202 1071.5 314.666L1071.5 267.334C1071.5 260.798 1076.8 255.5 1083.33 255.5M1179.67 255.5C1186.2 255.5 1191.5 260.798 1191.5 267.334L1191.5 314.666C1191.5 321.202 1186.2 326.5 1179.67 326.5" stroke="#000000" stroke-miterlimit="8" fill="none" fill-rule="evenodd"></path><text font-family="Arial,Arial_MSFontService,sans-serif" font-weight="700" font-size="16" transform="translate(1092.94 297)">Reporting</text><path d="M303.5 284.5 311.5 289 303.5 293.5Z" stroke="#000000" stroke-miterlimit="8" fill="#D8D8D8" fill-rule="evenodd"></path><path d="M453.5 284.5 461.5 289 453.5 293.5Z" stroke="#000000" stroke-miterlimit="8" fill="#D8D8D8" fill-rule="evenodd"></path><path d="M603.5 284.5 611.5 289 603.5 293.5Z" stroke="#000000" stroke-miterlimit="8" fill="#D8D8D8" fill-rule="evenodd"></path><path d="M753.5 284.5 761.5 289 753.5 293.5Z" stroke="#000000" stroke-miterlimit="8" fill="#D8D8D8" fill-rule="evenodd"></path><path d="M903.5 284.5 911.5 289 903.5 293.5Z" stroke="#000000" stroke-miterlimit="8" fill="#D8D8D8" fill-rule="evenodd"></path><path d="M1053.5 284.5 1061.5 289 1053.5 293.5Z" stroke="#000000" stroke-miterlimit="8" fill="#D8D8D8" fill-rule="evenodd"></path><path d="M383 434.931C383 428.342 388.342 423 394.931 423L944.069 423C950.658 423 956 428.342 956 434.931L956 457.069C956 463.658 950.658 469 944.069 469L394.931 469C388.342 469 383 463.658 383 457.069Z" fill="#F2F2F2" fill-rule="evenodd"></path><text font-family="Arial,Arial_MSFontService,sans-serif" font-weight="400" font-size="15" transform="translate(396.508 451)">Collaborative tracking and visibility</text><path d="M383 491.036C383 485.493 387.493 481 393.036 481L945.964 481C951.507 481 956 485.493 956 491.036L956 516.964C956 522.507 951.507 527 945.964 527L393.036 527C387.493 527 383 522.507 383 516.964Z" fill="#F2F2F2" fill-rule="evenodd"></path><text font-family="Arial,Arial_MSFontService,sans-serif" font-weight="400" font-size="15" transform="translate(395.949 509)">Control tower</text><path d="M383 547.772C383 542.927 386.927 539 391.772 539L658.228 539C663.073 539 667 542.927 667 547.772L667 576.228C667 581.073 663.073 585 658.228 585L391.772 585C386.927 585 383 581.073 383 576.228Z" fill="#F2F2F2" fill-rule="evenodd"></path><text font-family="Arial,Arial_MSFontService,sans-serif" font-weight="400" font-size="15" transform="translate(395.577 567)">Business Performance and Analytics</text><path d="M681 547.772C681 542.927 684.927 539 689.772 539L947.228 539C952.073 539 956 542.927 956 547.772L956 576.228C956 581.073 952.073 585 947.228 585L689.772 585C684.927 585 681 581.073 681 576.228Z" fill="#F2F2F2" fill-rule="evenodd"></path><text font-family="Arial,Arial_MSFontService,sans-serif" font-weight="400" font-size="15" transform="translate(693.157 567)">Mobile powered</text><path d="M383 605.772C383 600.927 386.927 597 391.772 597L658.228 597C663.073 597 667 600.927 667 605.772L667 634.228C667 639.073 663.073 643 658.228 643L391.772 643C386.927 643 383 639.073 383 634.228Z" fill="#F2F2F2" fill-rule="evenodd"></path><text font-family="Arial,Arial_MSFontService,sans-serif" font-weight="400" font-size="15" transform="translate(395.577 625)">Alerts and notifications</text><path d="M995 390.498C995 384.7 999.7 380 1005.5 380L1206.5 380C1212.3 380 1217 384.7 1217 390.498L1217 704.502C1217 710.3 1212.3 715 1206.5 715L1005.5 715C999.7 715 995 710.3 995 704.502Z" fill="#D5DBE5" fill-rule="evenodd"></path><text font-family="Arial,Arial_MSFontService,sans-serif" font-weight="400" font-size="16" transform="translate(1007.46 404)">Business outcomes</text><path d="M857.5 436.667C857.5 434.366 859.366 432.5 861.667 432.5L941.333 432.5C943.635 432.5 945.5 434.366 945.5 436.667L945.5 453.333C945.5 455.635 943.635 457.5 941.333 457.5L861.667 457.5C859.366 457.5 857.5 455.635 857.5 453.333Z" stroke="#FFFFFF" stroke-miterlimit="8" fill="#D5DBE5" fill-rule="evenodd"></path><text font-family="Arial,Arial_MSFontService,sans-serif" font-weight="400" font-size="13" transform="translate(870.45 450)">Driver app</text><path d="M762.5 436.667C762.5 434.366 764.366 432.5 766.667 432.5L846.333 432.5C848.635 432.5 850.5 434.366 850.5 436.667L850.5 453.333C850.5 455.635 848.635 457.5 846.333 457.5L766.667 457.5C764.366 457.5 762.5 455.635 762.5 453.333Z" stroke="#FFFFFF" stroke-miterlimit="8" fill="#D5DBE5" fill-rule="evenodd"></path><text font-family="Arial,Arial_MSFontService,sans-serif" font-weight="400" font-size="13" transform="translate(786.286 450)">Mobile</text><path d="M667.5 436.667C667.5 434.366 669.366 432.5 671.667 432.5L750.333 432.5C752.635 432.5 754.5 434.366 754.5 436.667L754.5 453.333C754.5 455.635 752.635 457.5 750.333 457.5L671.667 457.5C669.366 457.5 667.5 455.635 667.5 453.333Z" stroke="#FFFFFF" stroke-miterlimit="8" fill="#D5DBE5" fill-rule="evenodd"></path><text font-family="Arial,Arial_MSFontService,sans-serif" font-weight="400" font-size="13" transform="translate(678.457 450)">Telematics</text><path d="M829.5 494.5C829.5 492.291 831.291 490.5 833.5 490.5L941.5 490.5C943.709 490.5 945.5 492.291 945.5 494.5L945.5 510.5C945.5 512.709 943.709 514.5 941.5 514.5L833.5 514.5C831.291 514.5 829.5 512.709 829.5 510.5Z" stroke="#FFFFFF" stroke-miterlimit="8" fill="#D5DBE5" fill-rule="evenodd"></path><text font-family="Arial,Arial_MSFontService,sans-serif" font-weight="400" font-size="13" transform="translate(868.272 507)">Status</text><path d="M703.5 494.5C703.5 492.291 705.291 490.5 707.5 490.5L815.5 490.5C817.709 490.5 819.5 492.291 819.5 494.5L819.5 510.5C819.5 512.709 817.709 514.5 815.5 514.5L707.5 514.5C705.291 514.5 703.5 512.709 703.5 510.5Z" stroke="#FFFFFF" stroke-miterlimit="8" fill="#D5DBE5" fill-rule="evenodd"></path><text font-family="Arial,Arial_MSFontService,sans-serif" font-weight="400" font-size="13" transform="translate(727.89 507)">Next action</text><path d="M577.5 494.5C577.5 492.291 579.291 490.5 581.5 490.5L689.5 490.5C691.709 490.5 693.5 492.291 693.5 494.5L693.5 510.5C693.5 512.709 691.709 514.5 689.5 514.5L581.5 514.5C579.291 514.5 577.5 512.709 577.5 510.5Z" stroke="#FFFFFF" stroke-miterlimit="8" fill="#D5DBE5" fill-rule="evenodd"></path><text font-family="Arial,Arial_MSFontService,sans-serif" font-weight="400" font-size="13" transform="translate(596.757 507)">Map bird eye</text><path d="M681 603.963C681 599.013 685.013 595 689.963 595L948.037 595C952.987 595 957 599.013 957 603.963L957 633.037C957 637.987 952.987 642 948.037 642L689.963 642C685.013 642 681 637.987 681 633.037Z" fill="#F2F2F2" fill-rule="evenodd"></path><text font-family="Arial,Arial_MSFontService,sans-serif" font-weight="400" font-size="15" transform="translate(693.157 624)">Documents centralisation</text><path d="M1007 431.772C1007 426.927 1010.93 423 1015.77 423L1195.23 423C1200.07 423 1204 426.927 1204 431.772L1204 460.228C1204 465.073 1200.07 469 1195.23 469L1015.77 469C1010.93 469 1007 465.073 1007 460.228Z" fill="#F2F2F2" fill-rule="evenodd"></path><text font-family="Arial,Arial_MSFontService,sans-serif" font-weight="400" font-size="15" transform="translate(1018.82 451)">Collaboration</text><path d="M1007 489.772C1007 484.927 1010.93 481 1015.77 481L1195.23 481C1200.07 481 1204 484.927 1204 489.772L1204 518.228C1204 523.073 1200.07 527 1195.23 527L1015.77 527C1010.93 527 1007 523.073 1007 518.228Z" fill="#F2F2F2" fill-rule="evenodd"></path><text font-family="Arial,Arial_MSFontService,sans-serif" font-weight="400" font-size="15" transform="translate(1018.82 509)">Cost optimization</text><path d="M1007 547.772C1007 542.927 1010.93 539 1015.77 539L1195.23 539C1200.07 539 1204 542.927 1204 547.772L1204 576.228C1204 581.073 1200.07 585 1195.23 585L1015.77 585C1010.93 585 1007 581.073 1007 576.228Z" fill="#F2F2F2" fill-rule="evenodd"></path><text font-family="Arial,Arial_MSFontService,sans-serif" font-weight="400" font-size="15" transform="translate(1018.82 567)">Scalability</text><path d="M1007 605.772C1007 600.927 1010.93 597 1015.77 597L1195.23 597C1200.07 597 1204 600.927 1204 605.772L1204 634.228C1204 639.073 1200.07 643 1195.23 643L1015.77 643C1010.93 643 1007 639.073 1007 634.228Z" fill="#F2F2F2" fill-rule="evenodd"></path><text font-family="Arial,Arial_MSFontService,sans-serif" font-weight="400" font-size="15" transform="translate(1018.82 625)">Visibility</text><path d="M383 663.772C383 658.927 386.927 655 391.772 655L657.228 655C662.073 655 666 658.927 666 663.772L666 692.228C666 697.073 662.073 701 657.228 701L391.772 701C386.927 701 383 697.073 383 692.228Z" fill="#F2F2F2" fill-rule="evenodd"></path><text font-family="Arial,Arial_MSFontService,sans-serif" font-weight="400" font-size="15" transform="translate(395.068 683)">Ops one view</text><path d="M680 661.963C680 657.013 684.013 653 688.963 653L947.037 653C951.987 653 956 657.013 956 661.963L956 691.037C956 695.987 951.987 700 947.037 700L688.963 700C684.013 700 680 695.987 680 691.037Z" fill="#F2F2F2" fill-rule="evenodd"></path><text font-family="Arial,Arial_MSFontService,sans-serif" font-weight="400" font-size="15" transform="translate(692.649 682)">Freight settlement view</text><path d="M1007 661.963C1007 657.013 1011.01 653 1015.96 653L1195.04 653C1199.99 653 1204 657.013 1204 661.963L1204 691.037C1204 695.987 1199.99 700 1195.04 700L1015.96 700C1011.01 700 1007 695.987 1007 691.037Z" fill="#F2F2F2" fill-rule="evenodd"></path><text font-family="Arial,Arial_MSFontService,sans-serif" font-weight="400" font-size="15" transform="translate(1018.82 682)">Compliance</text><path d="M0 0.5-23.9999 0.5-23.4999 0-23.4999 257.228-23.9999 256.728 22.5302 256.728 22.5302 257.728-24.4999 257.728-24.4999-0.5 0-0.5ZM0-4C2.20914-4 4-2.20914 4 0 4 2.20914 2.20914 4 0 4-2.20914 4-4 2.20914-4 0-4-2.20914-2.20914-4 0-4ZM21.1968 253.228 29.1968 257.228 21.1968 261.228Z" transform="matrix(1 -1.22465e-16 -1.22465e-16 -1 142.5 547.728)"></path><path d="M1191.5 290 1242.33 290 1242.33 548.228 1224.5 548.228 1224.5 547.228 1241.83 547.228 1241.33 547.728 1241.33 290.5 1241.83 291 1191.5 291ZM1191.5 294.5C1189.29 294.5 1187.5 292.709 1187.5 290.5 1187.5 288.291 1189.29 286.5 1191.5 286.5 1193.71 286.5 1195.5 288.291 1195.5 290.5 1195.5 292.709 1193.71 294.5 1191.5 294.5ZM1225.83 551.728 1217.83 547.728 1225.83 543.728Z"></path><path d="M359 363 985 363 985 730 359 730Z" fill="url(#fill1)"></path><path d="M986.57 98.614C985.708 98.9655 984.416 99.2644 982.694 99.5105 981.718 99.6511 981.028 99.8093 980.624 99.9851 980.219 100.161 979.907 100.418 979.688 100.756 979.468 101.095 979.358 101.47 979.358 101.883 979.358 102.516 979.598 103.044 980.077 103.465 980.556 103.887 981.257 104.098 982.179 104.098 983.094 104.098 983.906 103.898 984.618 103.498 985.33 103.099 985.853 102.551 986.187 101.857 986.442 101.321 986.57 100.53 986.57 99.4841ZM934.57 98.614C933.708 98.9655 932.416 99.2644 930.694 99.5105 929.718 99.6511 929.028 99.8093 928.624 99.9851 928.219 100.161 927.907 100.418 927.688 100.756 927.468 101.095 927.358 101.47 927.358 101.883 927.358 102.516 927.598 103.044 928.077 103.465 928.556 103.887 929.257 104.098 930.179 104.098 931.094 104.098 931.906 103.898 932.618 103.498 933.33 103.099 933.853 102.551 934.187 101.857 934.442 101.321 934.57 100.53 934.57 99.4841ZM1012.31 93.2878C1011.13 93.2878 1010.14 93.7317 1009.36 94.6194 1008.58 95.507 1008.19 96.8474 1008.19 98.6404 1008.19 100.433 1008.58 101.776 1009.36 102.668 1010.14 103.56 1011.13 104.006 1012.31 104.006 1013.49 104.006 1014.47 103.558 1015.25 102.661 1016.03 101.765 1016.43 100.398 1016.43 98.5612 1016.43 96.8298 1016.03 95.518 1015.25 94.6259 1014.46 93.7339 1013.48 93.2878 1012.31 93.2878ZM901.957 93.2878C900.903 93.2878 900.006 93.7163 899.268 94.5732 898.53 95.4301 898.16 96.7024 898.16 98.3899 898.16 100.227 898.525 101.567 899.255 102.411 899.984 103.255 900.898 103.676 901.997 103.676 903.087 103.676 904.001 103.257 904.739 102.417 905.477 101.578 905.846 100.262 905.846 98.469 905.846 96.7551 905.466 95.4631 904.706 94.593 903.946 93.7229 903.03 93.2878 901.957 93.2878ZM911.644 91.6399 914.017 91.6399 914.017 105.641 911.644 105.641ZM890.644 91.6399 893.017 91.6399 893.017 105.641 890.644 105.641ZM1037 91.3235C1038.04 91.3235 1038.89 91.5388 1039.55 91.9695 1040.21 92.4001 1040.68 93.0022 1040.95 93.7756 1042.06 92.1408 1043.5 91.3235 1045.28 91.3235 1046.67 91.3235 1047.73 91.708 1048.48 92.477 1049.23 93.2461 1049.6 94.4304 1049.6 96.03L1049.6 105.641 1047.24 105.641 1047.24 96.821C1047.24 95.8718 1047.17 95.1884 1047.01 94.771 1046.86 94.3535 1046.58 94.0173 1046.17 93.7624 1045.77 93.5075 1045.3 93.3801 1044.75 93.3801 1043.77 93.3801 1042.95 93.7075 1042.3 94.3623 1041.65 95.0171 1041.32 96.0652 1041.32 97.5066L1041.32 105.641 1038.95 105.641 1038.95 96.5442C1038.95 95.4895 1038.76 94.6985 1038.37 94.1711 1037.98 93.6438 1037.35 93.3801 1036.47 93.3801 1035.8 93.3801 1035.19 93.5559 1034.62 93.9074 1034.05 94.259 1033.64 94.7732 1033.39 95.4499 1033.13 96.1267 1033 97.1023 1033 98.3767L1033 105.641 1030.63 105.641 1030.63 91.6399 1032.75 91.6399 1032.75 93.6042C1033.19 92.9187 1033.78 92.3672 1034.51 91.9497 1035.24 91.5322 1036.07 91.3235 1037 91.3235ZM1026.77 91.3235C1027.57 91.3235 1028.39 91.5783 1029.21 92.0881L1028.39 94.2898C1027.81 93.947 1027.23 93.7756 1026.65 93.7756 1026.14 93.7756 1025.67 93.9316 1025.26 94.2436 1024.84 94.5556 1024.55 94.9885 1024.37 95.5422 1024.11 96.386 1023.98 97.3088 1023.98 98.3108L1023.98 105.641 1021.6 105.641 1021.6 91.6399 1023.74 91.6399 1023.74 93.7624C1024.28 92.7693 1024.79 92.1145 1025.25 91.7981 1025.71 91.4817 1026.22 91.3235 1026.77 91.3235ZM1012.31 91.3235C1014.24 91.3235 1015.81 91.9541 1017.03 93.2153 1018.26 94.4765 1018.86 96.219 1018.86 98.4426 1018.86 100.244 1018.59 101.662 1018.05 102.694 1017.51 103.727 1016.73 104.529 1015.7 105.1 1014.66 105.672 1013.53 105.957 1012.31 105.957 1010.35 105.957 1008.77 105.329 1007.56 104.072 1006.35 102.815 1005.75 101.005 1005.75 98.6404 1005.75 96.0476 1006.47 94.1272 1007.91 92.8791 1009.11 91.842 1010.58 91.3235 1012.31 91.3235ZM983.551 91.3235C984.746 91.3235 985.717 91.4641 986.464 91.7453 987.211 92.0266 987.76 92.3803 988.112 92.8066 988.464 93.2329 988.71 93.7712 988.85 94.4216 988.929 94.8259 988.969 95.5554 988.969 96.6101L988.969 99.7741C988.969 101.98 989.02 103.376 989.121 103.96 989.222 104.544 989.422 105.105 989.72 105.641L987.242 105.641C986.996 105.149 986.838 104.573 986.767 103.914 985.888 104.661 985.042 105.188 984.229 105.496 983.417 105.803 982.544 105.957 981.613 105.957 980.074 105.957 978.892 105.581 978.066 104.83 977.24 104.079 976.827 103.118 976.827 101.949 976.827 101.264 976.983 100.638 977.295 100.071 977.607 99.5039 978.016 99.049 978.521 98.7063 979.026 98.3635 979.595 98.1042 980.228 97.9284 980.694 97.8054 981.397 97.6867 982.338 97.5725 984.254 97.344 985.664 97.0715 986.57 96.7551 986.578 96.4299 986.583 96.2234 986.583 96.1355 986.583 95.1687 986.359 94.4875 985.91 94.092 985.304 93.5559 984.403 93.2878 983.208 93.2878 982.092 93.2878 981.268 93.4834 980.736 93.8745 980.204 94.2656 979.811 94.9577 979.556 95.9509L977.236 95.6345C977.447 94.6413 977.794 93.8393 978.277 93.2285 978.76 92.6176 979.459 92.1474 980.373 91.8178 981.287 91.4883 982.346 91.3235 983.551 91.3235ZM931.551 91.3235C932.746 91.3235 933.717 91.4641 934.464 91.7453 935.211 92.0266 935.76 92.3803 936.112 92.8066 936.464 93.2329 936.71 93.7712 936.85 94.4216 936.929 94.8259 936.969 95.5554 936.969 96.6101L936.969 99.7741C936.969 101.98 937.02 103.376 937.121 103.96 937.222 104.544 937.422 105.105 937.72 105.641L935.242 105.641C934.996 105.149 934.838 104.573 934.767 103.914 933.888 104.661 933.042 105.188 932.229 105.496 931.417 105.803 930.544 105.957 929.613 105.957 928.074 105.957 926.892 105.581 926.066 104.83 925.24 104.079 924.827 103.118 924.827 101.949 924.827 101.264 924.983 100.638 925.295 100.071 925.607 99.5039 926.016 99.049 926.521 98.7063 927.026 98.3635 927.595 98.1042 928.228 97.9284 928.694 97.8054 929.397 97.6867 930.338 97.5725 932.254 97.344 933.664 97.0715 934.57 96.7551 934.578 96.4299 934.583 96.2234 934.583 96.1355 934.583 95.1687 934.359 94.4875 933.91 94.092 933.304 93.5559 932.403 93.2878 931.208 93.2878 930.092 93.2878 929.268 93.4834 928.736 93.8745 928.204 94.2656 927.811 94.9577 927.556 95.9509L925.236 95.6345C925.447 94.6413 925.794 93.8393 926.277 93.2285 926.76 92.6176 927.459 92.1474 928.373 91.8178 929.287 91.4883 930.346 91.3235 931.551 91.3235ZM901.786 91.3235C903.438 91.3235 904.801 91.9914 905.873 93.3274L905.873 91.6399 908.061 91.6399 908.061 103.742C908.061 105.922 907.839 107.467 907.396 108.376 906.952 109.286 906.249 110.005 905.286 110.532 904.324 111.059 903.139 111.323 901.733 111.323 900.063 111.323 898.714 110.947 897.686 110.196 896.657 109.444 896.161 108.313 896.196 106.801L898.503 107.144C898.6 107.856 898.868 108.374 899.307 108.699 899.896 109.139 900.7 109.359 901.72 109.359 902.819 109.359 903.667 109.139 904.264 108.699 904.862 108.26 905.266 107.645 905.477 106.854 905.6 106.37 905.657 105.355 905.649 103.808 904.612 105.03 903.32 105.641 901.773 105.641 899.848 105.641 898.358 104.947 897.303 103.558 896.249 102.169 895.721 100.504 895.721 98.5612 895.721 97.2253 895.963 95.9926 896.447 94.8633 896.93 93.7339 897.631 92.8615 898.549 92.2463 899.468 91.6311 900.547 91.3235 901.786 91.3235ZM956.492 88.5945 956.492 95.5027 961.489 95.5027C963.141 95.5027 964.314 95.195 965.009 94.5798 965.703 93.9646 966.05 93.0988 966.05 91.9826 966.05 91.174 965.846 90.4819 965.437 89.9062 965.028 89.3305 964.49 88.9504 963.822 88.7658 963.391 88.6516 962.596 88.5945 961.436 88.5945ZM874.492 88.5945 874.492 103.36 878.618 103.36C879.893 103.36 880.893 103.241 881.618 103.004 882.343 102.767 882.921 102.433 883.351 102.002 883.958 101.396 884.43 100.58 884.769 99.5566 885.107 98.5327 885.276 97.2912 885.276 95.8322 885.276 93.8108 884.944 92.2573 884.281 91.1718 883.617 90.0864 882.811 89.3591 881.862 88.99 881.176 88.7263 880.073 88.5945 878.552 88.5945ZM994.426 86.7488 994.426 91.6399 996.812 91.6399 996.812 93.4856 994.426 93.4856 994.426 101.673C994.426 102.349 994.468 102.784 994.551 102.978 994.635 103.171 994.771 103.325 994.96 103.439 995.149 103.553 995.419 103.611 995.771 103.611 996.034 103.611 996.382 103.58 996.812 103.518L997.155 105.615C996.487 105.755 995.889 105.825 995.362 105.825 994.501 105.825 993.833 105.689 993.358 105.417 992.884 105.144 992.55 104.786 992.356 104.342 992.163 103.898 992.066 102.965 992.066 101.541L992.066 93.4856 990.326 93.4856 990.326 91.6399 992.066 91.6399 992.066 88.1726ZM920.426 86.7488 920.426 91.6399 922.812 91.6399 922.812 93.4856 920.426 93.4856 920.426 101.673C920.426 102.349 920.468 102.784 920.551 102.978 920.635 103.171 920.771 103.325 920.96 103.439 921.149 103.553 921.419 103.611 921.771 103.611 922.034 103.611 922.382 103.58 922.812 103.518L923.155 105.615C922.487 105.755 921.889 105.825 921.362 105.825 920.501 105.825 919.833 105.689 919.358 105.417 918.884 105.144 918.55 104.786 918.356 104.342 918.163 103.898 918.066 102.965 918.066 101.541L918.066 93.4856 916.326 93.4856 916.326 91.6399 918.066 91.6399 918.066 88.1726ZM971.578 86.3137 973.951 86.3137 973.951 105.641 971.578 105.641ZM953.934 86.3137 961.225 86.3137C962.508 86.3137 963.488 86.3752 964.165 86.4983 965.114 86.6565 965.909 86.9575 966.551 87.4013 967.193 87.8452 967.709 88.467 968.1 89.2668 968.491 90.0666 968.687 90.9455 968.687 91.9035 968.687 93.5471 968.164 94.938 967.118 96.0761 966.072 97.2143 964.182 97.7834 961.449 97.7834L956.492 97.7834 956.492 105.641 953.934 105.641ZM939.578 86.3137 941.951 86.3137 941.951 105.641 939.578 105.641ZM911.644 86.3137 914.017 86.3137 914.017 89.0427 911.644 89.0427ZM890.644 86.3137 893.017 86.3137 893.017 89.0427 890.644 89.0427ZM871.934 86.3137 878.592 86.3137C880.095 86.3137 881.242 86.406 882.033 86.5905 883.14 86.8454 884.085 87.3069 884.867 87.9748 885.887 88.8362 886.649 89.937 887.155 91.2773 887.66 92.6176 887.913 94.1491 887.913 95.8718 887.913 97.3396 887.741 98.6404 887.399 99.7741 887.056 100.908 886.616 101.846 886.08 102.589 885.544 103.331 884.958 103.916 884.32 104.342 883.683 104.769 882.914 105.091 882.013 105.311 881.112 105.531 880.077 105.641 878.908 105.641L871.934 105.641ZM1004.07 85.9841C1004.74 85.9841 1005.48 86.0632 1006.29 86.2214L1005.93 88.2912C1005.44 88.2033 1004.97 88.1594 1004.53 88.1594 1003.82 88.1594 1003.3 88.3132 1003.01 88.6208 1002.71 88.9284 1002.56 89.5041 1002.56 90.3479L1002.56 91.6399 1005.29 91.6399 1005.29 93.4856 1002.56 93.4856 1002.56 105.641 1000.2 105.641 1000.2 93.4856 998.102 93.4856 998.102 91.6399 1000.2 91.6399 1000.2 90.1501C1000.2 89.2097 1000.28 88.511 1000.45 88.0539 1000.68 87.4387 1001.08 86.9399 1001.66 86.5576 1002.23 86.1753 1003.04 85.9841 1004.07 85.9841Z" fill="url(#fill2)" fill-rule="evenodd"></path><path d="M1118.68 98.9172C1118.21 99.0754 1117.46 99.2644 1116.43 99.4841 1115.4 99.7038 1114.73 99.9192 1114.41 100.13 1113.93 100.473 1113.68 100.908 1113.68 101.435 1113.68 101.954 1113.88 102.402 1114.27 102.78 1114.65 103.158 1115.14 103.347 1115.74 103.347 1116.41 103.347 1117.05 103.127 1117.65 102.688 1118.1 102.354 1118.4 101.945 1118.54 101.462 1118.63 101.145 1118.68 100.543 1118.68 99.6555ZM1086.68 98.9172C1086.21 99.0754 1085.46 99.2644 1084.43 99.4841 1083.4 99.7038 1082.73 99.9192 1082.41 100.13 1081.93 100.473 1081.68 100.908 1081.68 101.435 1081.68 101.954 1081.88 102.402 1082.27 102.78 1082.65 103.158 1083.14 103.347 1083.74 103.347 1084.41 103.347 1085.05 103.127 1085.65 102.688 1086.1 102.354 1086.4 101.945 1086.54 101.462 1086.63 101.145 1086.68 100.543 1086.68 99.6555ZM1100.67 94.2502C1099.76 94.2502 1099.01 94.5996 1098.41 95.2983 1097.81 95.997 1097.52 97.032 1097.52 98.403 1097.52 99.9763 1097.83 101.139 1098.45 101.89 1099.08 102.642 1099.84 103.017 1100.73 103.017 1101.59 103.017 1102.31 102.672 1102.88 101.982 1103.45 101.292 1103.74 100.161 1103.74 98.5876 1103.74 97.1198 1103.44 96.03 1102.85 95.3181 1102.27 94.6062 1101.54 94.2502 1100.67 94.2502ZM1185.52 94.1579C1184.71 94.1579 1184.04 94.4524 1183.52 95.0412 1182.99 95.6301 1182.73 96.4299 1182.74 97.4406L1188.27 97.4406C1188.25 96.3684 1187.97 95.5532 1187.44 94.9951 1186.92 94.437 1186.28 94.1579 1185.52 94.1579ZM1131.57 94.1579C1130.69 94.1579 1129.95 94.5029 1129.36 95.1928 1128.77 95.8828 1128.48 96.9309 1128.48 98.3371 1128.48 99.7873 1128.7 100.86 1129.16 101.554 1129.8 102.538 1130.66 103.031 1131.72 103.031 1132.54 103.031 1133.23 102.681 1133.81 101.982 1134.38 101.284 1134.67 100.183 1134.67 98.6799 1134.67 97.0803 1134.38 95.9267 1133.8 95.2192 1133.22 94.5117 1132.48 94.1579 1131.57 94.1579ZM1172.96 91.6399 1176.66 91.6399 1176.66 105.641 1172.96 105.641ZM1155.96 91.6399 1159.66 91.6399 1159.66 105.641 1155.96 105.641ZM1141.96 91.6399 1145.66 91.6399 1145.66 105.641 1141.96 105.641ZM1200.06 91.3235C1201.97 91.3235 1203.4 91.6355 1204.33 92.2595 1205.26 92.8835 1205.9 93.8064 1206.25 95.028L1202.76 95.674C1202.61 95.1291 1202.33 94.7116 1201.91 94.4216 1201.49 94.1316 1200.9 93.9865 1200.12 93.9865 1199.15 93.9865 1198.45 94.1228 1198.03 94.3952 1197.75 94.5886 1197.61 94.8391 1197.61 95.1467 1197.61 95.4104 1197.73 95.6345 1197.97 95.8191 1198.31 96.0652 1199.46 96.4123 1201.44 96.8606 1203.41 97.3088 1204.79 97.8581 1205.57 98.5085 1206.34 99.1677 1206.73 100.086 1206.73 101.264 1206.73 102.547 1206.19 103.65 1205.12 104.573 1204.05 105.496 1202.46 105.957 1200.36 105.957 1198.45 105.957 1196.94 105.571 1195.83 104.797 1194.72 104.024 1193.99 102.973 1193.65 101.646L1197.37 101.079C1197.53 101.8 1197.85 102.347 1198.33 102.721 1198.81 103.094 1199.49 103.281 1200.36 103.281 1201.32 103.281 1202.04 103.105 1202.52 102.754 1202.85 102.507 1203.01 102.178 1203.01 101.765 1203.01 101.484 1202.92 101.251 1202.75 101.066 1202.56 100.89 1202.15 100.728 1201.51 100.578 1198.52 99.9192 1196.63 99.3171 1195.83 98.7722 1194.72 98.0163 1194.16 96.966 1194.16 95.6213 1194.16 94.4084 1194.64 93.3889 1195.6 92.5627 1196.56 91.7365 1198.05 91.3235 1200.06 91.3235ZM1185.3 91.3235C1187.38 91.3235 1189.02 92.0112 1190.23 93.3867 1191.43 94.7622 1192.01 96.8694 1191.95 99.7082L1182.67 99.7082C1182.7 100.807 1183 101.662 1183.57 102.272 1184.14 102.883 1184.85 103.189 1185.7 103.189 1186.28 103.189 1186.77 103.031 1187.17 102.714 1187.56 102.398 1187.86 101.888 1188.06 101.185L1191.76 101.804C1191.28 103.158 1190.53 104.188 1189.51 104.896 1188.48 105.604 1187.2 105.957 1185.66 105.957 1183.23 105.957 1181.43 105.162 1180.26 103.571 1179.34 102.297 1178.87 100.688 1178.87 98.7458 1178.87 96.4255 1179.48 94.6084 1180.69 93.2944 1181.91 91.9804 1183.44 91.3235 1185.3 91.3235ZM1116.43 91.3235C1118.08 91.3235 1119.31 91.519 1120.12 91.9101 1120.93 92.3012 1121.5 92.7978 1121.83 93.3999 1122.16 94.0019 1122.32 95.1071 1122.32 96.7155L1122.28 101.04C1122.28 102.27 1122.34 103.178 1122.46 103.762 1122.58 104.347 1122.8 104.973 1123.12 105.641L1119.46 105.641C1119.36 105.395 1119.24 105.03 1119.1 104.547 1119.04 104.327 1119 104.182 1118.97 104.112 1118.34 104.727 1117.66 105.188 1116.94 105.496 1116.22 105.803 1115.45 105.957 1114.63 105.957 1113.19 105.957 1112.06 105.566 1111.23 104.784 1110.4 104.002 1109.98 103.013 1109.98 101.818 1109.98 101.027 1110.17 100.321 1110.55 99.7016 1110.93 99.082 1111.45 98.6074 1112.14 98.2778 1112.82 97.9482 1113.8 97.6604 1115.08 97.4143 1116.81 97.0891 1118.01 96.7859 1118.68 96.5046L1118.68 96.1355C1118.68 95.4236 1118.51 94.916 1118.15 94.6128 1117.8 94.3095 1117.14 94.1579 1116.16 94.1579 1115.5 94.1579 1114.99 94.2876 1114.62 94.5468 1114.25 94.8061 1113.95 95.261 1113.72 95.9113L1110.36 95.3049C1110.74 93.9514 1111.39 92.9494 1112.31 92.299 1113.24 91.6487 1114.61 91.3235 1116.43 91.3235ZM1101.67 91.3235C1103.29 91.3235 1104.67 91.9607 1105.81 93.2351 1106.94 94.5095 1107.51 96.2849 1107.51 98.5612 1107.51 100.899 1106.94 102.716 1105.79 104.013 1104.65 105.309 1103.27 105.957 1101.64 105.957 1100.87 105.957 1100.17 105.803 1099.54 105.496 1098.91 105.188 1098.25 104.661 1097.56 103.914L1097.56 110.967 1093.85 110.967 1093.85 91.6399 1097.3 91.6399 1097.3 93.6965C1097.75 92.9934 1098.36 92.4221 1099.12 91.9826 1099.89 91.5432 1100.74 91.3235 1101.67 91.3235ZM1084.43 91.3235C1086.08 91.3235 1087.31 91.519 1088.12 91.9101 1088.93 92.3012 1089.5 92.7978 1089.83 93.3999 1090.16 94.0019 1090.32 95.1071 1090.32 96.7155L1090.28 101.04C1090.28 102.27 1090.34 103.178 1090.46 103.762 1090.58 104.347 1090.8 104.973 1091.12 105.641L1087.46 105.641C1087.36 105.395 1087.24 105.03 1087.1 104.547 1087.04 104.327 1087 104.182 1086.97 104.112 1086.34 104.727 1085.66 105.188 1084.94 105.496 1084.22 105.803 1083.45 105.957 1082.63 105.957 1081.19 105.957 1080.06 105.566 1079.23 104.784 1078.4 104.002 1077.98 103.013 1077.98 101.818 1077.98 101.027 1078.17 100.321 1078.55 99.7016 1078.93 99.082 1079.45 98.6074 1080.14 98.2778 1080.82 97.9482 1081.8 97.6604 1083.08 97.4143 1084.81 97.0891 1086.01 96.7859 1086.68 96.5046L1086.68 96.1355C1086.68 95.4236 1086.51 94.916 1086.15 94.6128 1085.8 94.3095 1085.14 94.1579 1084.16 94.1579 1083.5 94.1579 1082.99 94.2876 1082.62 94.5468 1082.25 94.8061 1081.95 95.261 1081.72 95.9113L1078.36 95.3049C1078.74 93.9514 1079.39 92.9494 1080.31 92.299 1081.24 91.6487 1082.61 91.3235 1084.43 91.3235ZM1167.85 86.696 1167.85 91.6399 1170.38 91.6399 1170.38 94.593 1167.85 94.593 1167.85 100.236C1167.85 101.378 1167.87 102.044 1167.92 102.233 1167.97 102.422 1168.08 102.578 1168.25 102.701 1168.42 102.824 1168.63 102.885 1168.87 102.885 1169.22 102.885 1169.71 102.767 1170.36 102.53L1170.68 105.404C1169.82 105.773 1168.84 105.957 1167.75 105.957 1167.08 105.957 1166.48 105.845 1165.95 105.621 1165.41 105.397 1165.02 105.107 1164.77 104.751 1164.52 104.395 1164.34 103.914 1164.25 103.307 1164.17 102.877 1164.13 102.007 1164.13 100.697L1164.13 94.593 1162.43 94.593 1162.43 91.6399 1164.13 91.6399 1164.13 88.8581ZM1172.96 86.3137 1176.66 86.3137 1176.66 89.7414 1172.96 89.7414ZM1155.96 86.3137 1159.66 86.3137 1159.66 89.7414 1155.96 89.7414ZM1148.96 86.3137 1152.66 86.3137 1152.66 105.641 1148.96 105.641ZM1141.96 86.3137 1145.66 86.3137 1145.66 89.7414 1141.96 89.7414ZM1124.8 86.3137 1128.5 86.3137 1128.5 93.2746C1129.64 91.9738 1131 91.3235 1132.56 91.3235 1134.27 91.3235 1135.68 91.9409 1136.79 93.1758 1137.91 94.4106 1138.47 96.1838 1138.47 98.4953 1138.47 100.886 1137.9 102.727 1136.76 104.019 1135.62 105.311 1134.24 105.957 1132.62 105.957 1131.82 105.957 1131.03 105.757 1130.25 105.357 1129.47 104.957 1128.8 104.366 1128.24 103.584L1128.24 105.641 1124.8 105.641ZM1068.34 85.9841C1070.7 85.9841 1072.63 86.6828 1074.1 88.0803 1074.98 88.9065 1075.64 90.093 1076.08 91.6399L1072.22 92.5627C1071.99 91.5608 1071.51 90.7697 1070.79 90.1897 1070.06 89.6096 1069.18 89.3195 1068.14 89.3195 1066.71 89.3195 1065.55 89.8337 1064.66 90.862 1063.76 91.8904 1063.32 93.5559 1063.32 95.8586 1063.32 98.302 1063.76 100.042 1064.64 101.079 1065.52 102.116 1066.66 102.635 1068.06 102.635 1069.1 102.635 1069.99 102.305 1070.74 101.646 1071.49 100.987 1072.02 99.9499 1072.35 98.5349L1076.13 99.7346C1075.55 101.844 1074.59 103.411 1073.24 104.435 1071.89 105.459 1070.18 105.97 1068.1 105.97 1065.54 105.97 1063.43 105.094 1061.78 103.34 1060.12 101.587 1059.3 99.1897 1059.3 96.1487 1059.3 92.9319 1060.13 90.4336 1061.79 88.6538 1063.45 86.874 1065.63 85.9841 1068.34 85.9841Z" fill="url(#fill3)" fill-rule="evenodd"></path><path d="M0-0.5 185.512-0.5C185.788-0.5 186.012-0.276142 186.012 0L186.012 267.406 185.012 267.406 185.012 0 185.512 0.5 0 0.5ZM0 4C-2.20914 4-4 2.20914-4 0-4-2.20914-2.20914-4 0-4 2.20914-4 4-2.20914 4 0 4 2.20914 2.20914 4 0 4ZM189.512 267.406C189.512 269.616 187.721 271.406 185.512 271.406 183.303 271.406 181.512 269.616 181.512 267.406 181.512 265.197 183.303 263.406 185.512 263.406 187.721 263.406 189.512 265.197 189.512 267.406Z" fill="#0066FF" transform="matrix(-1 1.22465e-16 1.22465e-16 1 858.012 96.5001)"></path><path d="M621.5 267.334C621.5 260.798 626.798 255.5 633.334 255.5L729.666 255.5C736.202 255.5 741.5 260.798 741.5 267.334L741.5 314.666C741.5 321.202 736.202 326.5 729.666 326.5L633.334 326.5C626.798 326.5 621.5 321.202 621.5 314.666Z" fill="#F2F2F2" fill-rule="evenodd"></path><path d="M633.334 326.5C626.798 326.5 621.5 321.202 621.5 314.666L621.5 267.334C621.5 260.798 626.798 255.5 633.334 255.5M729.666 255.5C736.202 255.5 741.5 260.798 741.5 267.334L741.5 314.666C741.5 321.202 736.202 326.5 729.666 326.5" stroke="#000000" stroke-miterlimit="8" fill="none" fill-rule="evenodd"></path><text font-family="Arial,Arial_MSFontService,sans-serif" font-weight="700" font-size="16" transform="translate(640.214 297)">Shipments</text></g></svg>